<svg xmlns="http://www.w3.org/2000/svg" viewBox="0 0 48 48"><path fill="#fbc02d" d="M43.6 20.5H42V20H24v8h11.3C34 32.7 29.5 36 24 36c-6.6 0-12-5.4-12-12S17.4 12 24 12c3.1 0 5.9 1.2 8 3.1l5.7-5.7C34.9 6.5 29.7 4 24 4 12.9 4 4 12.9 4 24s8.9 20 20 20 20-8.9 20-20c0-1.1-.1-2.1-.4-3.1z"/><path fill="#e53935" d="M6.3 14.7l6.6 4.8C14.7 16.1 18.9 12 24 12c3.1 0 5.9 1.2 8 3.1l5.7-5.7C34.9 6.5 29.7 4 24 4 15.6 4 8.5 8.7 6.3 14.7z"/><path fill="#4caf50" d="M24 44c5.4 0 10.3-2.1 13.9-5.5l-6.4-5.4C29.5 36 26.9 37 24 37c-5.5 0-10.1-3.6-11.8-8.5l-6.6 5.1C8.6 40.9 15.7 44 24 44z"/><path fill="#1565c0" d="M43.6 20.5H42V20H24v8h11.3c-.8 2.4-2.5 4.4-4.7 5.7l6.4 5.4C39.8 35.7 44 30.6 44 24c0-1.1-.1-2.1-.4-3.5z"/></svg>
